<?xml version="1.0" encoding="UTF-8"?>
<svg width="22" height="22" viewBox="0 0 22 22" version="1.1" xmlns="http://www.w3.org/2000/svg" xmlns:xlink="http://www.w3.org/1999/xlink">
    <g id="图标" stroke="none" stroke-width="1" fill="none" fill-rule="evenodd">
        <g transform="translate(-440.000000, -1308.000000)" id="地址">
            <g transform="translate(440.000000, 1308.000000)">
                <rect id="矩形备份-26" x="0" y="0" width="22" height="22"></rect>
                <path d="M13.1117847,14.1929919 C14.6289608,14.5193069 15.499613,15.1719368 15.499613,16.0058529 C15.5340943,17.3201771 13.2583301,18 11.0170471,18 C8.77576421,18 6.5,17.3111128 6.5,16.0058529 C6.5,15.2172584 7.3620319,14.5646284 8.88782836,14.1929919 C8.99757511,14.1688752 9.11193784,14.1916272 9.20571996,14.2562353 C9.29950209,14.3208434 9.36500854,14.4220062 9.38780685,14.5374355 C9.41074231,14.6528347 9.38910469,14.7730876 9.32766123,14.8717 C9.26621777,14.9703123 9.17001007,15.0391927 9.06023474,15.0631652 C7.76718689,15.3441586 7.33617094,15.7883096 7.33617094,15.9695957 C7.33617094,16.3593608 8.7240423,17.0663766 10.9998065,17.0663766 C13.2755707,17.0663766 14.6634421,16.3593608 14.6634421,15.9695957 C14.6634421,15.7973739 14.2496668,15.353223 12.9393783,15.0631652 C12.829603,15.0391927 12.7333953,14.9703123 12.6719518,14.8717 C12.6105083,14.7730876 12.5888707,14.6528347 12.6118062,14.5374355 C12.63242,14.4207633 12.6974611,14.3180071 12.7918608,14.2529736 C12.8862604,14.1879401 13.0018265,14.1662729 13.1117847,14.1929919 Z M10.9881051,4 C13.4600475,4 15.5,5.95681818 15.5,8.39090909 C15.5,9.34545454 15.1880073,10.2522727 14.6120207,11.0159091 C14.5892761,11.038525 14.5656693,11.0594262 14.5413638,11.0784502 L11.3807725,15.2521528 C11.3521772,15.2912388 11.3171758,15.3273226 11.2760984,15.3590909 C11.1993002,15.4163636 11.122502,15.4430909 11.0457037,15.4514909 L10.9881051,15.4545455 C10.8921073,15.4545455 10.7961096,15.4306818 10.7001118,15.3590909 C10.6590344,15.3273226 10.624033,15.2912388 10.5954377,15.2521528 L7.38328571,11.0089158 L7.27652576,10.861301 C6.77198995,10.1311515 6.50020962,9.28181819 6.50020962,8.39090909 C6.47621017,5.95681818 8.51616266,4 10.9881051,4 Z M10.9881051,6.56473829 C10.0281274,6.56473829 9.26014533,7.29752066 9.26014533,8.21349862 C9.26014533,9.12947658 10.0281274,9.86225895 10.9881051,9.86225895 C11.9480827,9.86225895 12.7160648,9.12947658 12.7160648,8.21349862 C12.7160648,7.29752066 11.9480827,6.56473829 10.9881051,6.56473829 Z" id="形状结合" fill="currentColor" fill-rule="nonzero"></path>
                <circle id="椭圆形备份-41" stroke="currentColor" cx="11" cy="11" r="9.5"></circle>
            </g>
        </g>
    </g>
</svg>