<?xml version="1.0" encoding="UTF-8"?>
<svg width="22px" height="22px" viewBox="0 0 22 22" version="1.1" xmlns="http://www.w3.org/2000/svg" xmlns:xlink="http://www.w3.org/1999/xlink">
    <title>车辆</title>
    <g id="图标" stroke="none" stroke-width="1" fill="none" fill-rule="evenodd">
        <g transform="translate(-265.000000, -1363.000000)" id="车辆">
            <g transform="translate(265.000000, 1363.000000)">
                <rect id="矩形备份-38" x="0" y="0" width="22" height="22"></rect>
                <circle id="椭圆形备份-26" stroke="currentColor" cx="11" cy="11" r="9.5"></circle>
                <path d="M17.7659318,11.9302235 C17.7197391,11.1395349 17.211727,10.4418605 16.518971,10.11627 L15.8723943,7.04650254 C15.6414711,5.93022347 14.5330615,5 13.4246519,5 L8.48300148,5 C7.37459189,5 6.2661823,5.93022347 6.03525912,7.04650254 L5.38868235,10.11627 C4.69592635,10.4418605 4.18791431,11.1395349 4.14172155,11.9302235 L4.00317035,13.8837118 C3.95699113,14.7209211 4.41882395,15.5116234 5.1577727,15.7906931 C5.34250312,16.4883676 5.89670792,17 6.63564314,17 C7.28221991,17 7.83642471,16.5813953 8.06734789,15.9767351 L13.9326639,15.9767351 C14.1635871,16.5813953 14.7177919,17 15.3643552,17 C16.0571112,17 16.6575087,16.4883676 16.8422391,15.8372002 C17.5811743,15.5116234 18.0430207,14.7674419 17.9968279,13.9302326 L17.7659183,11.9302235 L17.7659318,11.9302235 Z M6.49709194,12.3488281 C6.68183589,12.1627862 6.91274554,12.0697584 7.18984794,12.0697584 C7.42077111,12.0697584 7.69787351,12.1627862 7.88260393,12.3488281 C8.06734789,12.5348837 8.15970633,12.8139535 8.15970633,13.0465025 C8.15970633,13.3255723 8.06734789,13.558135 7.88260393,13.744177 C7.69787351,13.9302326 7.46695034,14.0232467 7.18984794,14.0232467 C6.95893829,14.0232467 6.68183589,13.9302326 6.49709194,13.744177 C6.31236152,13.558135 6.21998954,13.3255723 6.21998954,13.0465025 C6.21998954,12.7674328 6.31236152,12.5348837 6.49709194,12.3488281 Z M7.69787351,10.5348746 C7.55932231,10.5348746 7.42077111,10.4883676 7.32839914,10.3488327 C7.23604069,10.2558049 7.18984794,10.11627 7.23604069,9.93022802 L7.23604069,9.88372093 L7.74405273,7.55813499 C7.79024549,7.18603743 8.15970633,6.90696766 8.52918071,6.90696766 L13.4708447,6.90696766 C13.8403055,6.90696766 14.1636007,7.23255814 14.2559591,7.55813499 L14.7639847,9.83720022 L14.7639847,10.11627 C14.7639847,10.1627907 14.7178054,10.2558049 14.6716127,10.3023256 C14.5792543,10.3953398 14.4407031,10.4883676 14.3021519,10.4883676 L7.69785998,10.4883676 L7.69787351,10.5348746 Z M14.0712287,12.3488281 C14.2559591,12.1627862 14.4868823,12.0697584 14.7639847,12.0697584 C14.9949078,12.0697584 15.2720102,12.1627862 15.4567407,12.3488281 C15.6414711,12.5348837 15.7338431,12.8139535 15.7338431,13.0465025 C15.7338431,13.3255723 15.6414711,13.558135 15.4567407,13.744177 C15.2720102,13.9302326 15.0410871,14.0232467 14.7639847,14.0232467 C14.5330615,14.0232467 14.2559591,13.9302326 14.0712287,13.744177 C13.8864983,13.558135 13.7941263,13.3255723 13.7941263,13.0465025 C13.7941263,12.7674328 13.8864983,12.5348837 14.0712287,12.3488281 Z" id="形状" fill="currentColor" fill-rule="nonzero"></path>
            </g>
        </g>
    </g>
</svg>