<svg t="1682489942013" viewBox="0 0 1024 1024" version="1.1" xmlns="http://www.w3.org/2000/svg" p-id="1183" width="32"
  height="32">
  <path
    d="M431.786667 529.066667c113.493333 0 341.333333 57.173333 341.333333 170.666666v179.2h-682.666667V699.733333c0-113.493333 227.84-170.666667 341.333334-170.666666z m0 81.066666c-128 0-260.266667 62.293333-260.266667 89.6v98.133334h520.533333V699.733333c0-27.306667-133.12-89.6-260.266666-89.6z m415.573333-59.733333V614.4h-64v-64h64zM815.786667 230.4c70.826667 0 128 57.173333 128 128 0 80.213333-95.573333 87.893333-95.573334 160.426667h-64c0-104.106667 95.573333-95.573333 95.573334-160.426667 0-34.986667-29.013333-64-64-64s-64 29.013333-64 64h-64c0-70.826667 57.173333-128 128-128z m-384-85.333333c93.866667 0 170.666667 76.8 170.666666 170.666666s-76.8 170.666667-170.666666 170.666667-170.666667-76.8-170.666667-170.666667 76.8-170.666667 170.666667-170.666666z m0 81.066666c-46.933333 0-86.186667 36.693333-89.6 83.626667v6.826667c0 46.933333 36.693333 86.186667 83.626666 89.6h6.826667c46.933333 0 86.186667-36.693333 89.6-83.626667V315.733333c0-46.933333-36.693333-86.186667-83.626667-89.6h-6.826666z"
    p-id="1184" fill="currentColor"></path>
</svg>